<svg width="1072" height="1480" viewBox="0 0 1072 1480" fill="none" xmlns="http://www.w3.org/2000/svg">
<g clip-path="url(#clip0_4_51)">
<rect width="1072" height="1480" fill="#f5f5f5"/>
<path d="M218.486 1351.23C216.614 1351.32 214.761 1350.8 213.178 1349.74C211.595 1348.68 210.358 1347.12 209.635 1345.29C208.912 1343.46 208.738 1341.44 209.137 1339.5C209.535 1337.56 210.487 1335.79 211.863 1334.45C212.093 1333.48 212.258 1332.78 212.489 1331.81C212.406 1331.6 212.324 1331.39 212.24 1331.17C210.355 1326.45 207.195 1322.43 203.158 1319.61C199.121 1316.78 194.388 1315.29 189.551 1315.31C184.715 1315.33 179.992 1316.86 175.975 1319.71C171.958 1322.57 168.827 1326.62 166.974 1331.35C159.571 1350.25 150.145 1369.18 147.824 1389.16C146.802 1397.99 147.233 1406.94 149.098 1415.62C131.709 1375.42 122.68 1331.73 122.622 1287.51C122.618 1276.41 123.2 1265.32 124.364 1254.3C125.327 1245.26 126.662 1236.28 128.37 1227.37C137.69 1179.01 157.7 1133.69 186.758 1095.12C200.822 1086.99 212.195 1074.49 219.346 1059.29C221.936 1053.83 223.767 1048 224.782 1041.98C223.195 1042.21 221.583 1042.34 219.996 1042.45C219.502 1042.48 218.982 1042.51 218.488 1042.54L218.301 1042.54C216.558 1042.63 214.829 1042.17 213.322 1041.24C211.816 1040.31 210.597 1038.93 209.811 1037.28C209.025 1035.63 208.707 1033.77 208.894 1031.93C209.081 1030.09 209.766 1028.35 210.866 1026.91C211.551 1026.02 212.236 1025.13 212.922 1024.23C213.962 1022.86 215.029 1021.51 216.069 1020.13C216.189 1020 216.302 1019.86 216.407 1019.71C217.604 1018.14 218.8 1016.6 219.996 1015.03C217.812 1011.44 214.875 1008.43 211.413 1006.24C199.424 998.795 182.883 1003.95 174.222 1015.44C165.535 1026.94 163.897 1043.06 166.913 1057.42C169.88 1069.64 174.788 1081.23 181.426 1091.71C180.776 1092.59 180.1 1093.44 179.449 1094.33C167.564 1110.52 157.204 1127.91 148.52 1146.25C150.632 1125.71 148.111 1104.93 141.166 1085.62C134.126 1067.62 120.932 1052.46 109.312 1036.9C95.3556 1018.22 66.7362 1026.37 64.2774 1050.06C64.2536 1050.29 64.2303 1050.52 64.2077 1050.75C65.9335 1051.78 67.6229 1052.88 69.2759 1054.03C71.3524 1055.51 72.9614 1057.61 73.8921 1060.06C74.8228 1062.52 75.0316 1065.21 74.4915 1067.8C73.9513 1070.38 72.6872 1072.73 70.8648 1074.54C69.0424 1076.35 66.7467 1077.54 64.2784 1077.94L64.0258 1077.98C64.6406 1084.57 65.7273 1091.11 67.2767 1097.52C71.7661 1115.44 79.6995 1132.18 90.5793 1146.69C101.459 1161.2 115.051 1173.18 130.502 1181.86C131.517 1182.41 132.505 1182.96 133.519 1183.49C124.794 1209.69 119.321 1236.99 117.238 1264.69C116.059 1281.03 116.129 1297.45 117.446 1313.78L117.368 1313.2C114.039 1295.04 104.898 1278.65 91.4901 1266.81C71.5755 1249.47 43.4399 1243.09 21.9555 1229.15C19.6723 1227.6 17.0173 1226.77 14.304 1226.76C11.5906 1226.76 8.932 1227.57 6.6416 1229.11C4.3512 1230.66 2.52457 1232.86 1.37722 1235.46C0.229868 1238.07 -0.190383 1240.97 0.166029 1243.82C0.194843 1244.02 0.224179 1244.23 0.253937 1244.43C3.45661 1245.81 6.5749 1247.4 9.59073 1249.2C11.3166 1250.23 13.006 1251.32 14.6589 1252.48C16.7355 1253.95 18.3445 1256.05 19.2751 1258.51C20.2058 1260.97 20.4148 1263.66 19.8746 1266.25C19.3344 1268.83 18.0703 1271.18 16.2479 1272.99C14.4255 1274.8 12.1297 1275.98 9.66151 1276.39L9.40859 1276.43C9.2265 1276.46 9.07049 1276.48 8.8887 1276.51C14.3609 1290.36 22.0414 1303.1 31.5936 1314.19C43.3939 1327.61 57.6561 1338.33 73.5057 1345.7C89.3554 1353.07 106.458 1356.93 123.766 1357.05H123.792C128.491 1378.68 135.298 1399.74 144.105 1419.89H216.667C216.927 1419.04 217.161 1418.15 217.395 1417.3C210.679 1417.75 203.936 1417.32 197.317 1416.03C202.701 1409.03 208.084 1401.97 213.468 1394.97C213.588 1394.84 213.701 1394.7 213.806 1394.56C216.537 1390.98 219.294 1387.42 222.025 1383.84L222.026 1383.83C222.172 1372.85 220.983 1361.89 218.488 1351.23L218.486 1351.23Z" fill="#cccccc"/>
<path d="M853.514 1351.23C855.386 1351.32 857.239 1350.8 858.822 1349.74C860.405 1348.68 861.642 1347.12 862.365 1345.29C863.087 1343.46 863.261 1341.44 862.863 1339.5C862.464 1337.56 861.513 1335.79 860.137 1334.45C859.907 1333.48 859.741 1332.78 859.511 1331.81C859.593 1331.6 859.676 1331.39 859.76 1331.17C861.645 1326.45 864.805 1322.43 868.842 1319.61C872.878 1316.78 877.612 1315.29 882.449 1315.31C887.285 1315.33 892.008 1316.86 896.025 1319.71C900.042 1322.57 903.173 1326.62 905.026 1331.35C912.429 1350.25 921.855 1369.18 924.176 1389.16C925.198 1397.99 924.767 1406.94 922.902 1415.62C940.29 1375.42 949.32 1331.73 949.378 1287.51C949.382 1276.41 948.8 1265.32 947.635 1254.3C946.673 1245.26 945.338 1236.28 943.63 1227.37C934.31 1179.01 914.3 1133.69 885.242 1095.12C871.178 1086.99 859.805 1074.49 852.654 1059.29C850.063 1053.83 848.233 1048 847.218 1041.98C848.805 1042.21 850.417 1042.34 852.004 1042.45C852.498 1042.48 853.018 1042.51 853.512 1042.54L853.699 1042.54C855.442 1042.63 857.171 1042.17 858.678 1041.24C860.184 1040.31 861.403 1038.93 862.189 1037.28C862.975 1035.63 863.293 1033.77 863.106 1031.93C862.919 1030.09 862.234 1028.35 861.134 1026.91C860.449 1026.02 859.764 1025.13 859.078 1024.23C858.038 1022.86 856.971 1021.51 855.931 1020.13C855.811 1020 855.698 1019.86 855.593 1019.71C854.396 1018.14 853.2 1016.6 852.004 1015.03C854.188 1011.44 857.125 1008.43 860.586 1006.24C872.576 998.795 889.117 1003.95 897.778 1015.44C906.465 1026.94 908.103 1043.06 905.086 1057.42C902.12 1069.64 897.212 1081.23 890.574 1091.71C891.224 1092.59 891.9 1093.44 892.55 1094.33C904.436 1110.52 914.796 1127.91 923.48 1146.25C921.368 1125.71 923.889 1104.93 930.834 1085.62C937.874 1067.62 951.068 1052.46 962.688 1036.9C976.644 1018.22 1005.26 1026.37 1007.72 1050.06C1007.75 1050.29 1007.77 1050.52 1007.79 1050.75C1006.07 1051.78 1004.38 1052.88 1002.72 1054.03C1000.65 1055.51 999.038 1057.61 998.108 1060.06C997.177 1062.52 996.968 1065.21 997.508 1067.8C998.049 1070.38 999.313 1072.73 1001.14 1074.54C1002.96 1076.35 1005.25 1077.54 1007.72 1077.94L1007.97 1077.98C1007.36 1084.57 1006.27 1091.11 1004.72 1097.52C1000.23 1115.44 992.301 1132.18 981.421 1146.69C970.541 1161.2 956.949 1173.18 941.498 1181.86C940.483 1182.41 939.495 1182.96 938.481 1183.49C947.206 1209.69 952.679 1236.99 954.762 1264.69C955.941 1281.03 955.871 1297.45 954.554 1313.78L954.632 1313.2C957.961 1295.04 967.102 1278.65 980.51 1266.81C1000.42 1249.47 1028.56 1243.09 1050.04 1229.15C1052.33 1227.6 1054.98 1226.77 1057.7 1226.76C1060.41 1226.76 1063.07 1227.57 1065.36 1229.11C1067.65 1230.66 1069.48 1232.86 1070.62 1235.46C1071.77 1238.07 1072.19 1240.97 1071.83 1243.82C1071.81 1244.02 1071.78 1244.23 1071.75 1244.43C1068.54 1245.81 1065.43 1247.4 1062.41 1249.2C1060.68 1250.23 1058.99 1251.32 1057.34 1252.48C1055.26 1253.95 1053.66 1256.05 1052.72 1258.51C1051.79 1260.97 1051.59 1263.66 1052.13 1266.25C1052.67 1268.83 1053.93 1271.18 1055.75 1272.99C1057.57 1274.8 1059.87 1275.98 1062.34 1276.39L1062.59 1276.43C1062.77 1276.46 1062.93 1276.48 1063.11 1276.51C1057.64 1290.36 1049.96 1303.1 1040.41 1314.19C1028.61 1327.61 1014.34 1338.33 998.494 1345.7C982.645 1353.07 965.541 1356.93 948.234 1357.05H948.207C943.509 1378.68 936.702 1399.74 927.895 1419.89H855.333C855.072 1419.04 854.838 1418.15 854.604 1417.3C861.321 1417.75 868.064 1417.32 874.683 1416.03C869.299 1409.03 863.915 1401.97 858.532 1394.97C858.412 1394.84 858.299 1394.7 858.194 1394.56C855.463 1390.98 852.706 1387.42 849.975 1383.84L849.974 1383.83C849.828 1372.85 851.019 1361.89 853.514 1351.23Z" fill="#cccccc"/>
<path d="M241.587 1379L262.8 1388.58L307.764 1306.43L276.454 1292.29L241.587 1379Z" fill="#A0616A"/>
<path d="M416.884 1400.28L439.942 1400.27L450.913 1306.02L416.879 1306.02L416.884 1400.28Z" fill="#A0616A"/>
<path d="M416.072 1425.77L486.98 1425.76V1424.81C486.979 1417.06 484.071 1409.62 478.896 1404.13C473.72 1398.65 466.7 1395.57 459.381 1395.57L446.427 1385.15L422.261 1395.57L416.071 1395.57L416.072 1425.77Z" fill="#6264E9"/>
<path d="M228.689 1395.32L293.92 1424.78L294.272 1423.91C297.141 1416.77 297.218 1408.72 294.486 1401.52C291.754 1394.32 286.436 1388.57 279.703 1385.53L271.639 1370.57L245.555 1370.11L239.86 1367.54L228.689 1395.32Z" fill="#6264E9"/>
<path d="M439.503 842.44L474.547 1068.58L465.01 1102.28L477.525 1126.14L459.146 1335.74L466.607 1353.15L445.763 1366.77H403.35L401.099 1177.02L390.622 1149.16V1133.8L369.294 1018.1L367.019 1161.79L360.21 1175.71L299.211 1344.93H251.652L255.331 1314.9C246.81 1310.33 268.124 1296.97 270.172 1287.08L263.169 1270.38L270.172 1238.84L286.302 1151.12L269.821 1047.11L275.724 980.169L272.651 957.269L272.884 949.863C272.884 949.863 281.013 946.539 273.25 938.242C262.502 873.674 275.724 859.662 275.724 859.662L328.643 826.84L439.503 842.44Z" fill="#e287d6"/>
<path d="M354.161 544.631C380.705 544.631 402.223 521.827 402.223 493.697C402.223 465.567 380.705 442.763 354.161 442.763C327.617 442.763 306.099 465.567 306.099 493.697C306.099 521.827 327.617 544.631 354.161 544.631Z" fill="#A0616A"/>
<path d="M293.904 395.991C294.13 398.911 293.75 401.849 292.789 404.597C291.829 407.344 290.312 409.836 288.344 411.895C286.377 413.954 284.008 415.531 281.403 416.514C278.799 417.498 276.022 417.864 273.27 417.588L245.344 482.376L226.811 451.003L256.171 394.289C256.916 389.419 259.321 385.008 262.929 381.891C266.538 378.775 271.1 377.169 275.751 377.379C280.402 377.589 284.819 379.6 288.164 383.03C291.51 386.46 293.552 391.072 293.904 395.991Z" fill="#A0616A"/>
<path d="M442.653 847.31C442.753 848.073 442.677 848.851 442.432 849.577C442.188 850.303 441.781 850.956 441.247 851.479C440.713 852.003 440.068 852.382 439.366 852.585C438.664 852.787 437.926 852.808 437.216 852.643C412.052 846.881 308.209 860.71 273.814 897.857C273.164 898.568 272.322 899.049 271.404 899.234C270.487 899.419 269.537 899.3 268.685 898.893C267.834 898.486 267.121 897.81 266.645 896.958C266.169 896.106 265.953 895.119 266.025 894.132C266.632 886.145 277.583 850.017 277.583 850.017L280.921 827.503C280.997 826.979 280.997 826.446 280.921 825.922L277.861 807.295C277.695 806.321 277.254 805.424 276.596 804.722L275.559 803.623C274.709 802.719 274.232 801.495 274.232 800.219C274.232 798.943 274.709 797.719 275.559 796.815L279.581 792.581C280.068 792.052 280.437 791.413 280.66 790.713C280.884 790.012 280.955 789.268 280.87 788.534L275.534 746.723C275.509 746.643 275.509 746.536 275.484 746.455L251.913 614.538C251.73 613.496 251.876 612.42 252.329 611.475C252.782 610.53 253.515 609.77 254.417 609.311L294.477 589.023C294.893 588.818 295.277 588.547 295.615 588.219L323.586 560.72C324.419 559.919 325.496 559.463 326.621 559.434L376.898 559.032C377.596 559.032 378.285 559.201 378.911 559.526C379.538 559.851 380.087 560.324 380.515 560.908L395.815 582.001C396.36 582.746 397.098 583.305 397.94 583.609L408.309 587.334L438.253 598.108L439.644 598.617C440.504 598.932 441.254 599.516 441.795 600.291C442.337 601.065 442.645 601.996 442.678 602.959C442.699 603.101 442.708 603.245 442.704 603.388L435.218 767.575C435.195 768.299 435.316 769.02 435.572 769.692L439.163 778.563C439.521 779.463 439.614 780.457 439.428 781.414C439.243 782.37 438.789 783.245 438.126 783.924C437.064 784.996 435.85 786.228 435.091 787.14C433.549 788.935 436.836 803.167 437.342 805.231C437.388 805.407 437.422 805.586 437.443 805.767L439.29 820.481C439.397 821.345 439.279 822.224 438.949 823.022C438.619 823.82 438.09 824.508 437.418 825.011C436.907 825.397 436.477 825.892 436.156 826.464C435.836 827.036 435.631 827.672 435.555 828.333C435.479 828.993 435.533 829.663 435.714 830.3C435.896 830.937 436.2 831.527 436.609 832.033L440.655 837.098C441.207 837.814 441.565 838.676 441.692 839.591L442.653 847.31Z" fill="#A0A2FF"/>
<path d="M341.866 542.137C341.661 541.658 341.456 541.177 341.252 540.695C341.33 540.698 341.408 540.71 341.487 540.712L341.866 542.137Z" fill="#2F2E41"/>
<path d="M512.993 830.554C513.227 827.634 512.854 824.696 511.9 821.946C510.946 819.195 509.435 816.7 507.473 814.636C505.51 812.571 503.145 810.988 500.543 809.997C497.94 809.006 495.165 808.632 492.412 808.901L464.643 744.037L446.034 775.36L475.257 832.154C475.99 837.026 478.384 841.443 481.985 844.57C485.586 847.696 490.144 849.314 494.796 849.116C499.447 848.919 503.869 846.921 507.223 843.5C510.577 840.079 512.63 835.472 512.993 830.554Z" fill="#A0616A"/>
<path d="M475.354 762.456L473.811 765.511L457.549 797.726L455.273 802.229L439.391 779.046L387.267 702.983L394.677 655.276L408.309 595.508L428.516 594.276L442.678 600.413C448.711 603.237 453.659 608.15 456.71 614.346C459.762 620.541 460.735 627.652 459.471 634.512L446.927 702.581L475.354 762.456Z" fill="#A0A2FF"/>
<path d="M396.005 447.867C395.286 443.635 393.678 439.63 391.3 436.146C390.103 434.637 388.618 433.414 386.943 432.554C385.269 431.695 383.442 431.22 381.582 431.16C379.722 431.1 377.872 431.457 376.151 432.207C374.43 432.957 372.878 434.083 371.596 435.512C372.347 433.196 372.566 430.725 372.234 428.302C368.723 430.086 364.969 431.269 361.109 431.808L369.638 422.371L327.183 426.505C322.801 426.931 318.063 427.536 314.846 431.063C311.628 434.591 311.45 442.12 315.517 444.087C307.503 440.889 298.301 445.531 293.014 453.308C287.727 461.086 285.78 471.345 285.423 481.298C284.96 494.204 287.229 507.943 294.663 517.445C299.523 523.658 306.151 527.532 311.531 533.122L311.692 533.291C317.583 539.694 324.969 544.332 333.099 546.732C341.229 549.132 349.813 549.209 357.98 546.956C358.898 546.689 359.808 546.392 360.724 546.115C365.299 548.308 370.997 545.31 373.884 540.434C376.964 535.235 377.572 528.582 377.703 522.246C377.873 513.958 377.392 505.671 376.262 497.468C374.989 488.231 373.841 476.402 380.744 471.763C386.119 468.151 392.796 471.715 398.206 475.252C398.726 466.059 397.985 456.834 396.005 447.867Z" fill="#2F2E41"/>
<path d="M293.519 683.658L261.495 681.208L205.914 609.093L164.656 546.423L174.158 520.946L219.071 452.757L218.605 446.867L223.576 445.917L223.664 438.827L227.789 439.521L238.838 422.746L264.128 444.187L249.825 488.713L248.954 497.79L244.006 506.83L246.425 519.231L236.967 528.742L232.413 542.919C252.059 556.611 270.69 577.096 288.854 602.732L293.519 683.658Z" fill="#A0A2FF"/>
<path d="M729.969 762.087L726.497 796.206L728.541 840.948L635.027 829.174L626.238 762.087L637.434 762.202L729.969 762.087Z" fill="#FFB6B6"/>
<path d="M648.545 649.95L670.766 635.821L681.42 618.397L714.297 623.758L754.488 652.309L754.094 717.064L729.175 784.226L624.737 770.097L620.769 746.407C620.769 746.407 591.882 705.29 622.991 681.741L648.545 649.95Z" fill="#A0A2FF"/>
<path d="M515.177 457.668C514.124 460.047 513.576 462.642 513.572 465.27C513.568 467.898 514.107 470.495 515.152 472.878C516.198 475.261 517.723 477.373 519.622 479.063C521.52 480.754 523.746 481.983 526.141 482.664L598.488 627.329L627.691 603.444L547.393 468.753C548.205 464.413 547.487 459.908 545.374 456.092C543.262 452.275 539.902 449.413 535.931 448.046C531.96 446.68 527.654 446.905 523.829 448.678C520.004 450.451 516.925 453.65 515.177 457.668Z" fill="#FFB6B6"/>
<path d="M633.854 676.212C633.854 676.212 627.15 682.513 617.616 665.114C609.983 651.185 571.918 588.812 566.528 567.19C563.571 567.278 560.671 566.322 558.284 564.471C555.897 562.62 554.158 559.98 553.343 556.967L594.231 540.149C603.12 544.858 600.653 551.386 598.399 554.763L613.627 578.97L664.279 639.21L638.776 671.748L633.854 676.212Z" fill="#A0A2FF"/>
<path d="M778.474 1381.56H758.029L748.297 1297.99H778.474V1381.56Z" fill="#FFB6B6"/>
<path d="M789.264 1419.1H774.602L771.985 1404.43L765.282 1419.1H726.395C724.531 1419.1 722.716 1418.47 721.214 1417.3C719.713 1416.13 718.604 1414.48 718.049 1412.59C717.494 1410.7 717.523 1408.68 718.131 1406.81C718.739 1404.95 719.894 1403.33 721.428 1402.21L752.482 1379.48V1364.65L785.145 1366.72L789.264 1419.1Z" fill="#6264E9"/>
<path d="M663.63 1381.56H643.185L633.454 1297.99H663.63V1381.56Z" fill="#FFB6B6"/>
<path d="M674.421 1419.1H659.759L657.141 1404.43L650.439 1419.1H611.551C609.687 1419.1 607.872 1418.47 606.371 1417.3C604.869 1416.13 603.76 1414.48 603.205 1412.59C602.651 1410.7 602.679 1408.68 603.287 1406.81C603.895 1404.95 605.05 1403.33 606.584 1402.21L637.638 1379.48V1364.65L670.302 1366.72L674.421 1419.1Z" fill="#6264E9"/>
<path d="M787.294 1309.49H787.072L783.14 1173.6C785.685 1168.4 786.976 1162.61 786.899 1156.76C786.823 1150.9 785.38 1145.15 782.7 1140.03L782.137 1138.95L783.597 1131.78C785.472 1122.56 784.611 1112.96 781.134 1104.29L777.466 977.532C790.571 887.527 728.117 828.828 728.117 828.828H634.56L627.874 853.173L620.723 859.612L623.43 869.352L615.665 881.053L614.474 901.961C601.196 1039.06 603.605 1172.65 624.676 1302.09L624.101 1302.4C623.012 1303.04 622.198 1304.1 621.829 1305.37C621.46 1306.63 621.564 1307.99 622.119 1309.18C623.093 1312.17 625.559 1313.98 627.627 1313.22L677.036 1311.4C678.126 1310.76 678.94 1309.69 679.309 1308.43C679.678 1307.17 679.574 1305.8 679.018 1304.62C678.045 1301.63 675.579 1299.82 673.51 1300.57L670.151 1302.37L677.315 1171.25L676.52 1147.3L678.158 1120.13L685.732 997.911L714.398 1148.2L743.68 1311C742.873 1311.78 742.306 1312.79 742.054 1313.92C741.803 1315.04 741.879 1316.22 742.273 1317.29C742.666 1318.37 743.358 1319.29 744.258 1319.95C745.158 1320.6 746.223 1320.94 747.312 1320.94H787.294C788.727 1320.94 790.102 1320.34 791.115 1319.26C792.128 1318.19 792.698 1316.73 792.698 1315.21C792.698 1313.7 792.128 1312.24 791.115 1311.17C790.102 1310.09 788.727 1309.49 787.294 1309.49Z" fill="#ffcb6d"/>
<path d="M889.755 884.74C890.742 882.329 891.219 879.718 891.151 877.091C891.082 874.464 890.471 871.885 889.361 869.535C888.251 867.185 886.668 865.122 884.723 863.491C882.779 861.86 880.521 860.7 878.108 860.094L801.807 717.728L773.275 742.506L857.248 874.656C856.556 879.019 857.398 883.5 859.614 887.249C861.831 890.999 865.268 893.756 869.275 894.999C873.282 896.242 877.58 895.884 881.355 893.993C885.129 892.102 888.118 888.81 889.755 884.74Z" fill="#FFB6B6"/>
<path d="M748.127 652.208C748.127 652.208 754.655 645.702 764.664 662.799C772.677 676.486 829.427 755.407 835.41 776.853C838.363 776.673 841.289 777.539 843.726 779.315C846.163 781.092 847.973 783.677 848.871 786.663L808.463 804.739C799.449 800.306 795.25 792.014 797.41 788.569L781.522 764.844L721.954 691.964L743.33 656.822L748.127 652.208Z" fill="#A0A2FF"/>
<path d="M1050.11 1423.84C1050.11 1424.38 1050.01 1424.93 1049.81 1425.43C1049.62 1425.94 1049.33 1426.4 1048.96 1426.78C1048.6 1427.17 1048.16 1427.48 1047.69 1427.69C1047.21 1427.9 1046.7 1428 1046.18 1428H4.09C3.04819 1428 2.04903 1427.56 1.31236 1426.78C0.575688 1426 0.161835 1424.94 0.161835 1423.84C0.161835 1422.73 0.575688 1421.67 1.31236 1420.89C2.04903 1420.11 3.04819 1419.67 4.09 1419.67H1046.18C1046.7 1419.67 1047.21 1419.78 1047.69 1419.99C1048.16 1420.2 1048.6 1420.5 1048.96 1420.89C1049.33 1421.28 1049.62 1421.74 1049.81 1422.24C1050.01 1422.75 1050.11 1423.29 1050.11 1423.84Z" fill="#CCCCCC"/>
<path d="M665.44 524.42C651.836 552.836 660.723 585.751 685.967 603.059C713.265 621.776 748.708 617.678 760.172 581.306C772.939 540.801 762.451 523.425 739.645 502.667C712.919 478.34 680.139 493.718 665.44 524.42Z" fill="#2F2E41"/>
<path d="M732.407 587.722C725.481 597.337 715.237 603.645 703.925 605.261C692.613 606.877 681.158 603.669 672.077 596.34C662.996 589.012 657.03 578.164 655.492 566.178C653.953 554.192 656.966 542.049 663.87 532.416L664.244 531.896C671.299 522.537 681.543 516.493 692.765 515.066C703.988 513.639 715.29 516.945 724.234 524.27C733.177 531.595 739.046 542.352 740.573 554.22C742.1 566.089 739.163 578.118 732.396 587.713L732.407 587.722Z" fill="#FFB6B6"/>
<path d="M652.257 519.82C659.257 526.878 667.789 532.002 677.1 534.738C678.967 532.449 681.179 530.506 683.648 528.988C682.466 531.593 681.656 534.369 681.245 537.226C685.398 546.36 702.359 552.924 718.569 559.639L740.04 519.482L711.621 502.417C688.785 485.685 661.902 492.826 652.257 519.82Z" fill="#2F2E41"/>
<path d="M756.236 502.717C758.309 501.907 760.54 501.661 762.726 501.999C764.911 502.337 766.983 503.25 768.75 504.654C772.21 507.441 775.008 511.047 776.919 515.183C780.395 521.876 782.893 529.089 784.326 536.576C785.552 543.053 785.344 550.884 779.861 554.264C775.285 557.085 768.742 555.309 764.537 551.545C760.639 547.596 757.682 542.722 755.91 537.325C754.17 531.966 751.587 526.959 748.271 522.513L752.059 524.388C750.862 520.535 750.304 516.491 750.41 512.435C750.497 510.418 751.08 508.459 752.102 506.754C753.124 505.049 754.55 503.657 756.236 502.717Z" fill="#2F2E41"/>
<path d="M707.082 507.98L737.571 526.289C741.654 528.74 745.24 532.019 748.127 535.94C751.013 539.86 753.142 544.345 754.393 549.137C755.644 553.93 755.992 558.936 755.418 563.871C754.843 568.806 753.356 573.573 751.043 577.899C744.238 590.624 733.201 600.202 720.087 604.763C706.974 609.323 692.727 608.538 680.131 602.561L707.992 576.497L670.196 596.905L662.127 592.059C702.661 584.248 710.48 550.552 707.082 507.98Z" fill="#2F2E41"/>
<path d="M517.312 30L417.005 206.979L517.653 269.952L517.312 30Z" fill="#8C8C8C"/>
<path d="M618.059 206.979L517.312 30L517.653 269.952L618.059 206.979Z" fill="#333333"/>
<path d="M417.005 206.979L517.532 158.423L517.653 269.952L417.005 206.979Z" fill="#383838"/>
<path d="M618.059 206.979L517.532 158.423L517.749 265.875L618.059 206.979Z" fill="#141414"/>
<path d="M617.813 227.246L517.408 290.219V377.081L617.813 227.246Z" fill="#333333"/>
<path d="M417 227.246L517.408 290.219V377.081L417 227.246Z" fill="#8C8C8C"/>
</g>
<defs>
<clipPath id="clip0_4_51">
<rect width="1072" height="1480" fill="white"/>
</clipPath>
</defs>
</svg>
